# xmcd
#
# Track frame offsets:
#	150
#	10640
#	21607
#	34087
#	44075
#	52672
#	63137
#	73307
#	82790
#	94552
#
# Disc length: 1373 seconds
# Revision: 0
# Processed by: cddbd v1.5.2PL0 Copyright (c) Steve Scherf et al.
# Submitted via: dBpowerAMP V12.0
#
DISCID=76055b0a
DTITLE=Levi Mullen - Workin' Class Cowboy
DYEAR=1900
DGENRE=Country
TTITLE0=Workin' Class Cowboy
TTITLE1=Copenhagen Kisses
TTITLE2=Sing This Cowboy A Love Song 
TTITLE3=A Cowboy Has A Ball
TTITLE4=It Takes A Real Man To Be A Cowboy
TTITLE5=My Heart's An Armadillo And Yoy're A Semi Truck
TTITLE6=There's More To A Cowboy Than That 
TTITLE7=I Think The Lady Likes The Likes Of Me
TTITLE8=The Night I Turned Cactus Into Roses
TTITLE9=A Good Pair Of Boots And A Martin Guitar
EXTD=
EXTT0=
EXTT1=
EXTT2=
EXTT3=
EXTT4=
EXTT5=
EXTT6=
EXTT7=
EXTT8=
EXTT9=
PLAYORDER=
